<svg version="1.1" xmlns="http://www.w3.org/2000/svg" width="32" height="32" viewBox="0 0 32 32"><path d="M0 0h32v32H0z" fill="#1E1E1E"/><path d="M0 0h14.803v0.063c-0.049 0.007 -0.097 0.013 -0.147 0.02C11.965 0.454 9.347 1.134 7.118 2.772l-0.114 0.083C5.736 3.773 4.543 4.799 3.609 6.064a18.142 18.142 0 0 1 -0.251 0.328C2.863 7.035 2.466 7.728 2.079 8.441l-0.067 0.122C0.043 12.171 -0.129 16.508 0.996 20.397 1.576 22.331 2.541 24.155 3.843 25.701l0.083 0.1C4.572 26.579 5.25 27.279 6.047 27.906q0.099 0.081 0.197 0.162C7.621 29.194 9.218 30.04 10.898 30.614l0.138 0.047c0.836 0.283 1.688 0.486 2.559 0.626l0.141 0.023C17.826 31.933 21.978 30.796 25.323 28.409c0.218 -0.16 0.425 -0.328 0.63 -0.504q0.103 -0.086 0.206 -0.172C26.899 27.115 27.561 26.46 28.157 25.701q0.081 -0.099 0.162 -0.197c1.712 -2.094 2.864 -4.745 3.222 -7.426 0.016 -0.117 0.036 -0.234 0.056 -0.35 0.298 -1.892 0.083 -3.911 -0.354 -5.759l-0.035 -0.157C30.82 10.075 30.037 8.298 28.976 6.866l-0.082 -0.114C28.011 5.534 27.027 4.383 25.827 3.465l-0.112 -0.088C25.126 2.917 24.527 2.504 23.874 2.142l-0.158 -0.089C22.811 1.551 21.892 1.153 20.913 0.819l-0.146 -0.05C19.554 0.354 18.343 0.186 17.071 0.063V0h14.929v32H0z" fill="#1D1E1D"/><path d="M18.907 6.567c0.502 0.204 0.79 1.216 0.998 1.685l0.059 0.132c0.235 0.526 0.429 1.059 0.59 1.612l0.046 0.156c0.215 0.768 0.27 1.533 0.265 2.328l0.001 0.242c-0.004 1.772 -0.74 3.21 -1.983 4.448C18.17 17.857 16.77 18.961 15.748 18.961c0.034 -0.286 0.152 -0.459 0.315 -0.693l0.063 -0.189h0.126c0.015 -0.04 0.03 -0.08 0.045 -0.121a7.559 7.559 0 0 1 0.214 -0.464C17.446 15.61 17.993 13.651 17.827 11.528l-0.063 -0.063 -0.038 0.125C17.209 13.261 16.628 14.931 15.622 16.378l-0.139 0.202c-0.355 0.502 -0.355 0.502 -0.617 0.68l-0.009 -0.17 -0.014 -0.223c-0.004 -0.073 -0.009 -0.146 -0.013 -0.221 -0.025 -0.192 -0.063 -0.289 -0.152 -0.456 -0.031 -0.129 -0.06 -0.259 -0.087 -0.39 -0.136 -0.606 -0.41 -1.367 -0.858 -1.815 -0.171 -1.418 0.597 -2.926 1.44 -4.014 0.476 -0.604 0.973 -1.182 1.517 -1.726l0.127 -0.129c0.239 -0.239 0.482 -0.452 0.756 -0.651 0.138 -0.101 0.271 -0.206 0.404 -0.312l0.138 -0.109q0.141 -0.111 0.28 -0.224l0.137 -0.107 0.122 -0.098C18.772 6.551 18.772 6.551 18.907 6.567" fill="#31AB40"/><path d="m18.772 0.189 0.148 0.022C21.443 0.618 23.926 1.864 25.89 3.465l0.115 0.093C26.864 4.258 27.676 5.037 28.346 5.921l0.097 0.125c2.558 3.297 3.735 7.525 3.234 11.679C31.13 21.726 29.074 25.52 25.89 28.031l-0.184 0.149c-3.201 2.543 -7.38 3.684 -11.434 3.268 -0.181 -0.022 -0.36 -0.049 -0.539 -0.079l-0.155 -0.025C9.74 30.721 6.135 28.704 3.717 25.638l-0.149 -0.184C1.86 23.305 0.831 20.744 0.403 18.045q-0.023 -0.143 -0.047 -0.285C0.119 16.395 0.158 14.844 0.378 13.48l0.024 -0.152C0.844 10.561 1.968 8.044 3.717 5.858l0.156 -0.196C4.55 4.831 5.318 4.048 6.173 3.402l0.124 -0.097C8.375 1.693 10.769 0.645 13.354 0.189l0.161 -0.029C15.235 -0.143 17.054 -0.08 18.772 0.189M11.528 1.134l-0.173 0.051C9.629 1.709 8.025 2.604 6.614 3.717l-0.182 0.141C5.256 4.792 4.251 5.881 3.402 7.118l-0.09 0.131C1.925 9.282 1.063 11.662 0.819 14.11l-0.021 0.2C0.694 15.483 0.738 16.66 0.882 17.827l0.016 0.145C1.157 20.214 2.071 22.551 3.402 24.378l0.137 0.189A30.551 30.551 0 0 0 3.969 25.134l0.129 0.166c0.29 0.363 0.598 0.706 0.915 1.046l0.117 0.126C5.399 26.76 5.684 27.021 5.984 27.276l0.114 0.098C7.534 28.602 9.183 29.536 10.961 30.173l0.129 0.046C12.138 30.589 13.257 30.819 14.362 30.929l0.2 0.021c1.173 0.104 2.35 0.06 3.516 -0.084l0.145 -0.016C20.466 30.591 22.803 29.677 24.63 28.346l0.189 -0.137a30.551 30.551 0 0 0 0.567 -0.43l0.166 -0.129c0.363 -0.29 0.706 -0.598 1.046 -0.915l0.126 -0.117c0.287 -0.27 0.549 -0.555 0.803 -0.855l0.1 -0.117C29.393 23.569 30.589 21.021 31.055 18.331l0.026 -0.148c0.333 -1.974 0.304 -4.222 -0.278 -6.151l-0.11 -0.449C30.171 9.664 29.258 7.922 28.031 6.362l-0.128 -0.165c-0.29 -0.364 -0.599 -0.707 -0.915 -1.048l-0.117 -0.126C26.601 4.736 26.316 4.475 26.016 4.22l-0.117 -0.1C24.399 2.847 22.662 1.861 20.787 1.26l-0.167 -0.055C19.618 0.878 18.621 0.694 17.575 0.567l-0.147 -0.02C15.469 0.299 13.406 0.575 11.528 1.134" fill="#2D8755"/><path d="M25.386 16.441v0.126l0.567 0.189 0.028 0.213c0.022 0.217 0.022 0.217 0.098 0.354l-0.031 0.142c-0.044 0.176 -0.044 0.176 0.012 0.358 0.027 0.266 -0.069 0.366 -0.232 0.571l-0.189 0.189 -0.063 0.189c-0.189 0.126 -0.189 0.126 -0.378 0.126l-0.063 0.315h-0.126l-0.016 0.134c-0.098 0.374 -0.32 0.58 -0.614 0.811 -0.177 0.186 -0.34 0.372 -0.465 0.598 -0.133 0.205 -0.303 0.34 -0.49 0.495 -0.13 0.107 -0.13 0.107 -0.242 0.293 -0.186 0.129 -0.275 0.189 -0.504 0.189l-0.051 0.11c-0.123 0.234 -0.196 0.371 -0.453 0.457a11.276 11.276 0 0 0 -0.252 0.252c-0.2 0.185 -0.362 0.316 -0.63 0.378a5.165 5.165 0 0 0 -0.26 0.122l-0.13 0.065c-0.124 0.065 -0.124 0.065 -0.24 0.191 -0.083 0.024 -0.168 0.044 -0.252 0.063q-0.237 0.077 -0.472 0.157c-0.502 0.17 -0.502 0.17 -0.724 0.22v0.126c-0.425 0.071 -0.425 0.071 -0.567 0v0.126l-0.441 -0.063v0.126H11.843c-0.071 -0.494 -0.071 -0.494 0.024 -0.787 0.061 -0.202 0.115 -0.392 0.138 -0.602C12.031 22.488 12.031 22.488 12.157 22.362l0.189 -0.063c0.067 -0.116 0.067 -0.116 0.126 -0.252 0.183 -0.268 0.378 -0.548 0.63 -0.756h0.189v-0.126l0.169 -0.083c0.201 -0.098 0.201 -0.098 0.35 -0.197C14.113 20.714 14.452 20.535 14.803 20.535v-0.126h0.693v-0.126q0.392 -0.003 0.783 -0.004l0.226 -0.002 0.215 -0.001 0.199 -0.001C17.071 20.283 17.071 20.283 17.134 20.346c0.749 0.099 1.514 0.07 2.268 0.063v-0.126l0.63 -0.063v-0.126l0.378 -0.063v-0.126l0.185 -0.055c0.2 -0.048 0.2 -0.048 0.256 -0.197l0.146 -0.051c0.179 -0.063 0.179 -0.063 0.287 -0.224 0.218 -0.27 0.517 -0.394 0.827 -0.543v-0.126h0.189l0.047 -0.106c0.093 -0.172 0.201 -0.314 0.331 -0.461h0.126l0.024 -0.118C22.866 17.89 22.866 17.89 22.992 17.764l0.063 -0.126h0.126l0.063 -0.189c0.112 -0.108 0.112 -0.108 0.248 -0.22 0.162 -0.134 0.264 -0.232 0.382 -0.409 0.153 -0.083 0.153 -0.083 0.335 -0.161l0.18 -0.079L24.567 16.504l0.163 -0.074c0.236 -0.081 0.412 -0.03 0.656 0.011" fill="#014C22"/><path d="m9.008 10.898 0.189 0.126c0.142 0.003 0.142 0.003 0.295 -0.012 0.312 -0.007 0.493 0.07 0.75 0.239L10.331 11.339v0.189l0.441 -0.126 0.063 0.126c0.127 0.071 0.127 0.071 0.252 0.126v0.126l0.146 -0.008C11.402 11.78 11.402 11.78 11.591 11.906v0.126l0.142 0.012c0.226 0.067 0.282 0.183 0.425 0.366a4.913 4.913 0 0 0 0.315 0.126c0.094 0.087 0.094 0.087 0.189 0.189l0.15 0.118c0.173 0.14 0.325 0.29 0.48 0.449l0.146 0.134C13.543 13.543 13.543 13.543 13.543 13.732h0.189l0.079 0.196c0.097 0.227 0.221 0.425 0.358 0.63 0.254 0.397 0.394 0.796 0.508 1.252l0.041 0.159q0.043 0.172 0.085 0.345l0.063 0.126c0.018 0.143 0.032 0.286 0.043 0.429l0.02 0.234c-0.001 0.219 -0.021 0.344 -0.127 0.534a23.622 23.622 0 0 1 -0.378 0.252c-0.117 0.164 -0.117 0.164 -0.189 0.315l-0.189 -0.063v0.126h-0.126l0.008 0.146C13.921 18.583 13.921 18.583 13.795 18.772c-0.228 0.043 -0.228 0.043 -0.441 0.063 -0.187 -0.255 -0.231 -0.493 -0.276 -0.8 -0.045 -0.166 -0.107 -0.218 -0.228 -0.334a44.472 44.472 0 0 1 -0.063 -0.441c-0.085 -0.169 -0.158 -0.288 -0.299 -0.413L12.409 16.756c0.02 -0.138 0.02 -0.138 0.063 -0.252h-0.126v-0.189h-0.126l-0.02 -0.213L12.157 15.874l-0.189 -0.126v-0.126l-0.189 -0.063a15.685 15.685 0 0 1 -0.252 -0.378l-0.142 -0.142L11.276 14.929v-0.126h-0.189v-0.126h-0.126q0.043 0.154 0.087 0.307l0.049 0.173c0.045 0.159 0.045 0.159 0.18 0.276 0.137 0.38 0.193 0.744 0.063 1.134h0.126v0.126h0.126l0.135 0.369c0.05 0.135 0.05 0.135 0.123 0.255 0.074 0.172 0.067 0.307 0.061 0.494 -0.006 0.215 -0.001 0.412 0.026 0.626 0.034 0.263 0.046 0.524 0.053 0.789l0.004 0.142q0.006 0.221 0.012 0.443l0.008 0.303q0.01 0.368 0.019 0.737l-0.378 0.063v-0.126l-0.252 -0.063v-0.126l-0.165 0.016c-0.266 -0.02 -0.388 -0.098 -0.591 -0.268a8.819 8.819 0 0 1 -0.063 -0.252 4.913 4.913 0 0 0 -0.315 -0.126c-0.255 -0.188 -0.454 -0.361 -0.622 -0.63 -0.136 -0.192 -0.241 -0.274 -0.449 -0.378l0.063 -0.252 -0.118 -0.047c-0.159 -0.093 -0.198 -0.16 -0.26 -0.331v-0.189h-0.126c-0.077 -0.228 -0.153 -0.456 -0.228 -0.684a13.165 13.165 0 0 0 -0.164 -0.468c-0.201 -0.568 -0.199 -1.088 -0.175 -1.682q0 -0.125 -0.003 -0.251c-0.019 -0.802 0.015 -1.549 0.192 -2.332l0.046 -0.207c0.291 -1.235 0.291 -1.235 0.584 -1.43z" fill="#014520"/><path d="M22.201 15.756c0.213 0.052 0.326 0.088 0.476 0.244v0.189l0.165 -0.154c0.189 -0.159 0.341 -0.207 0.591 -0.224 0.053 0.213 0.07 0.357 0 0.567h-0.126l-0.047 0.106c-0.125 0.231 -0.235 0.425 -0.488 0.52 -0.221 0.094 -0.282 0.246 -0.409 0.445 -0.278 0.252 -0.278 0.252 -0.441 0.252v0.126l-0.189 0.063 -0.126 -0.063 -0.004 0.138c-0.087 0.26 -0.273 0.353 -0.5 0.492v-0.126h-0.126l0.063 0.189 -0.189 0.063 -0.055 0.121c-0.096 0.178 -0.194 0.201 -0.382 0.268l-0.167 0.062c-0.196 0.068 -0.362 0.118 -0.569 0.143L19.465 19.213l-0.063 0.126c-0.316 0.059 -0.565 0.071 -0.882 0l0.055 -0.138a32.756 32.756 0 0 0 0.131 -0.335c0.108 -0.278 0.216 -0.537 0.38 -0.787l0.063 -0.126 0.126 -0.189 0.063 -0.126h0.126l-0.016 -0.138c0.021 -0.241 0.096 -0.325 0.268 -0.492 0.232 -0.129 0.384 -0.19 0.65 -0.185C20.535 16.882 20.535 16.882 20.622 17.008c0.039 0.126 0.039 0.126 0.039 0.189l0.063 0.189c0.199 -0.086 0.252 -0.125 0.378 -0.315l0.026 -0.154c0.044 -0.193 0.114 -0.271 0.25 -0.413 0.166 -0.18 0.295 -0.353 0.417 -0.567 0.128 -0.192 0.167 -0.19 0.406 -0.181" fill="#033B1A"/><path d="M12.157 22.299h0.189l-0.028 0.134c-0.036 0.186 -0.068 0.372 -0.098 0.559h-0.126l0.012 0.169c-0.013 0.233 -0.076 0.331 -0.201 0.524v0.189h0.126v0.126l0.19 -0.027c0.717 -0.097 1.42 -0.116 2.143 -0.111l0.351 0.001q0.457 0.001 0.913 0.003c0.312 0.001 0.624 0.002 0.936 0.003 0.61 0.001 1.219 0.003 1.829 0.006l-0.189 0.063v0.126H11.843c-0.071 -0.494 -0.071 -0.494 0.024 -0.787 0.061 -0.202 0.115 -0.392 0.138 -0.602C12.031 22.488 12.031 22.488 12.157 22.362z" fill="#1C3526"/><path d="M14.11 3.15h0.441c0.136 0.475 0.192 0.959 0.252 1.449h-0.378v-0.315h-0.567l-0.126 0.315h-0.315c0.098 -0.337 0.251 -0.63 0.417 -0.937l0.08 -0.15Q14.012 3.331 14.11 3.15" fill="#2C8453"/><path d="M16.819 3.15h0.441c0.217 0.992 0.217 0.992 0.189 1.449h-0.315v-0.315c-0.092 0.004 -0.184 0.009 -0.276 0.016l-0.155 0.009c-0.148 0.025 -0.148 0.025 -0.218 0.167L16.441 4.598h-0.315c0.036 -0.225 0.094 -0.396 0.207 -0.594l0.086 -0.152 0.089 -0.156 0.09 -0.16Q16.708 3.343 16.819 3.15" fill="#2D8554"/><path d="M18.709 3.15c0.114 0.084 0.114 0.084 0.189 0.189v0.189h-0.315v-0.126l-0.378 0.063v0.189l0.106 0.037 0.138 0.05 0.137 0.049C18.709 3.843 18.709 3.843 18.835 3.969c-0.005 0.234 -0.037 0.347 -0.189 0.528 -0.256 0.139 -0.471 0.156 -0.756 0.102 -0.161 -0.114 -0.161 -0.114 -0.252 -0.252v-0.189h0.315l0.063 0.189 0.441 -0.126v-0.126l-0.122 -0.053 -0.158 -0.069 -0.157 -0.069C17.89 3.843 17.89 3.843 17.827 3.78c-0.024 -0.215 -0.023 -0.339 0.087 -0.528 0.249 -0.154 0.51 -0.155 0.795 -0.102" fill="#2D8553"/><path d="M12.472 3.15h1.197v0.252h-0.504l-0.126 1.197h-0.315l0.126 -1.197h-0.378z" fill="#2D8554"/><path d="M13.652 23.867h0.157q0.253 0 0.506 0.001l0.353 0q0.463 0 0.925 0.002 0.473 0.001 0.946 0.001 0.927 0.001 1.853 0.003l-0.189 0.063v0.126l-5.669 -0.063v-0.063c0.375 -0.047 0.739 -0.072 1.117 -0.07" fill="#083B1A"/><path d="M15.181 3.15h0.315c-0.039 0.399 -0.081 0.798 -0.126 1.197h0.567v0.252h-0.945c0.039 -0.489 0.102 -0.966 0.189 -1.449" fill="#2D8654"/><path d="M20.22 9.323h0.126c0.358 1.177 0.526 2.234 0.504 3.465h-0.063l-0.063 -1.26h-0.126l-0.063 0.252h-0.063l0.007 -0.134c0.013 -0.457 -0.049 -0.858 -0.154 -1.301 -0.051 -0.245 -0.051 -0.457 -0.042 -0.706 -0.027 -0.179 -0.027 -0.179 -0.063 -0.315" fill="#28A245"/><path d="M17.827 13.48h0.063c0.006 0.302 -0.015 0.584 -0.063 0.882l-0.035 0.248c-0.009 0.064 -0.018 0.127 -0.028 0.193h-0.126l-0.028 0.22 -0.018 0.138a11.402 11.402 0 0 0 -0.031 0.289c-0.012 0.121 -0.03 0.241 -0.049 0.361l-0.126 0.063 -0.012 0.248c-0.032 0.394 -0.258 0.645 -0.492 0.949l-0.063 0.126 -0.126 -0.063 0.099 -0.229c0.271 -0.63 0.52 -1.257 0.72 -1.913l0.043 -0.139c0.096 -0.346 0.134 -0.703 0.18 -1.059C17.764 13.606 17.764 13.606 17.827 13.48" fill="#3A9143"/><path d="m21.417 19.213 0.189 0.063 -0.126 0.083 -0.126 0.106v0.189c-0.425 0.252 -0.425 0.252 -0.567 0.252v0.126c-0.183 0.175 -0.39 0.248 -0.624 0.33 -0.127 0.046 -0.246 0.101 -0.368 0.158 -0.198 0.076 -0.267 0.099 -0.457 0.016h0.189v-0.126h-0.126v-0.126l0.63 -0.063v-0.126l0.378 -0.063v-0.126l0.185 -0.055c0.2 -0.048 0.2 -0.048 0.256 -0.197l0.146 -0.051c0.207 -0.091 0.292 -0.208 0.421 -0.39" fill="#12482A"/><path d="m14.425 11.213 0.126 0.126 -0.067 0.122c-0.17 0.324 -0.268 0.582 -0.311 0.949a16.63 16.63 0 0 1 -0.189 0.315c-0.052 0.214 -0.065 0.415 -0.063 0.634 0 0.248 0 0.248 -0.039 0.425 -0.043 0.156 -0.043 0.156 0.102 0.327l-0.252 -0.126c-0.079 -0.979 0.203 -1.928 0.693 -2.772" fill="#3C8D47"/><path d="M14.614 15.811h0.063c0.104 0.363 0.146 0.686 0.142 1.063l0.001 0.145c-0.001 0.351 -0.001 0.351 -0.143 0.493v-0.126h-0.126q-0.003 -0.252 -0.004 -0.504l-0.002 -0.142c-0.001 -0.315 0.023 -0.617 0.069 -0.929" fill="#024D11"/><path d="M17.512 7.622c0 0.126 0 0.126 -0.075 0.209 -0.038 0.035 -0.075 0.07 -0.114 0.106l-0.15 0.15L17.008 8.252l-0.169 0.177C16.693 8.567 16.693 8.567 16.567 8.567l-0.055 0.118C16.441 8.819 16.441 8.819 16.315 8.945c-0.134 -0.024 -0.134 -0.024 -0.252 -0.063q0.277 -0.28 0.555 -0.559c0.052 -0.053 0.105 -0.106 0.159 -0.161l0.153 -0.154 0.141 -0.142C17.33 7.622 17.33 7.622 17.512 7.622" fill="#379446"/><path d="M24.504 16.315v0.126l0.1 -0.062c0.195 -0.083 0.354 -0.083 0.565 -0.084l0.217 -0.003c0.189 0.023 0.189 0.023 0.302 0.112L25.764 16.504l0.106 0.106L25.953 16.693c-0.354 0.016 -0.354 0.016 -0.567 -0.126v-0.126c-0.41 -0.039 -0.666 0.054 -1.032 0.24 -0.161 0.074 -0.305 0.111 -0.48 0.138l0.252 -0.252 0.134 -0.142C24.378 16.315 24.378 16.315 24.504 16.315" fill="#123522"/><path d="M12.409 12.535c0.316 0.234 0.607 0.474 0.882 0.756l0.146 0.134C13.543 13.543 13.543 13.543 13.543 13.732l0.126 0.063c-0.146 -0.008 -0.146 -0.008 -0.315 -0.063a6.362 6.362 0 0 1 -0.189 -0.378c-0.186 -0.073 -0.186 -0.073 -0.378 -0.063v-0.126h-0.126c-0.162 -0.176 -0.289 -0.324 -0.315 -0.567z" fill="#1A382A"/><path d="M16.378 17.764c0.084 0.251 0.015 0.34 -0.091 0.579l-0.09 0.207L16.126 18.709l0.252 0.063c-0.417 0.189 -0.417 0.189 -0.63 0.189 0.034 -0.286 0.152 -0.459 0.315 -0.693l0.063 -0.189h0.126z" fill="#359144"/><path d="m25.638 17.827 0.126 0.126c0.164 -0.02 0.164 -0.02 0.315 -0.063 -0.066 0.204 -0.149 0.351 -0.287 0.512 -0.163 0.169 -0.163 0.169 -0.217 0.37h-0.126c-0.005 -0.11 -0.009 -0.22 -0.012 -0.331l-0.007 -0.186c0.021 -0.2 0.074 -0.281 0.207 -0.428" fill="#124027"/><path d="M12.157 22.299h0.189l-0.028 0.134c-0.036 0.186 -0.068 0.372 -0.098 0.559h-0.126l0.012 0.169c-0.013 0.233 -0.076 0.331 -0.201 0.524v0.189l0.126 0.063h-0.252a9.953 9.953 0 0 1 0.189 -1.197l0.028 -0.137C12.031 22.488 12.031 22.488 12.157 22.362z" fill="#063417"/><path d="M20.409 14.614h0.126c-0.184 0.637 -0.453 1.245 -0.945 1.701 0.038 -0.346 0.038 -0.346 0.154 -0.496C19.843 15.748 19.843 15.748 19.969 15.748l0.063 -0.504h0.126l0.02 -0.102c0.055 -0.189 0.141 -0.354 0.232 -0.528" fill="#369D4D"/><path d="M20.85 13.039c-0.031 0.43 -0.083 0.842 -0.189 1.26l-0.035 0.142L20.598 14.551l-0.189 -0.063 0.062 -0.123c0.084 -0.254 0.077 -0.482 0.071 -0.747l-0.002 -0.15A47.307 47.307 0 0 0 20.535 13.102c0.244 -0.063 0.244 -0.063 0.315 -0.063" fill="#2A9941"/><path d="M15.874 23.874h2.52l-0.189 0.063v0.126l-2.331 -0.126z" fill="#0F3F22"/><path d="M18.904 6.566c0.174 0.069 0.227 0.178 0.325 0.335l0.099 0.158L19.402 7.181l-0.063 0.126c-0.189 -0.126 -0.189 -0.126 -0.232 -0.323L19.087 6.803l-0.441 -0.063 -0.004 0.11c-0.098 0.235 -0.273 0.288 -0.5 0.394l-0.189 -0.063a37.354 37.354 0 0 1 0.394 -0.319l0.112 -0.093c0.28 -0.222 0.28 -0.222 0.445 -0.203" fill="#358C3F"/><path d="M19.402 7.37c0.188 0.094 0.214 0.232 0.299 0.421l0.1 0.222L19.906 8.252l0.054 0.123C20.283 9.108 20.283 9.108 20.283 9.26h-0.126v-0.126h-0.126c-0.011 -0.043 -0.023 -0.085 -0.035 -0.129 -0.016 -0.056 -0.032 -0.112 -0.048 -0.17l-0.047 -0.168c-0.062 -0.167 -0.142 -0.274 -0.249 -0.414 -0.042 -0.122 -0.042 -0.122 -0.067 -0.244 -0.049 -0.218 -0.111 -0.427 -0.185 -0.638" fill="#309244"/><path d="M23.748 20.598h0.189c-0.036 0.22 -0.11 0.321 -0.272 0.472l-0.12 0.114L23.433 21.291l-0.154 0.154L23.181 21.543l-0.189 -0.063 0.087 -0.075c0.112 -0.112 0.112 -0.112 0.165 -0.276 0.063 -0.154 0.063 -0.154 0.252 -0.28h0.189z" fill="#143D25"/><path d="M8.63 17.638h0.126v0.189h0.126l0.126 0.315 0.189 -0.126 0.063 0.693c-0.294 -0.147 -0.294 -0.147 -0.378 -0.378v-0.189h-0.126c-0.079 -0.183 -0.126 -0.302 -0.126 -0.504" fill="#09381E"/><path d="m24.693 19.528 0.189 0.063c-0.135 0.255 -0.28 0.39 -0.504 0.567 -0.131 0.143 -0.255 0.291 -0.378 0.441 -0.07 -0.211 -0.071 -0.296 0 -0.504 0.126 -0.091 0.126 -0.091 0.28 -0.161 0.225 -0.104 0.323 -0.171 0.413 -0.406" fill="#10482B"/><path d="M19.213 16.819c-0.353 0.373 -0.684 0.695 -1.134 0.945v-0.189l0.142 -0.083c0.212 -0.13 0.295 -0.275 0.425 -0.484 0.159 -0.192 0.325 -0.31 0.567 -0.189" fill="#3FA349"/><path d="M8.126 13.858h0.063v1.323l0.126 0.063 -0.063 0.063a4.409 4.409 0 0 0 -0.035 0.256L8.189 15.811h-0.126q-0.002 -0.387 -0.003 -0.774 -0.001 -0.132 -0.001 -0.263c-0.001 -0.126 -0.001 -0.252 -0.001 -0.378l-0.001 -0.23C8.063 13.984 8.063 13.984 8.126 13.858" fill="#1F382B"/><path d="M9.008 10.709c0.299 -0.027 0.49 0.064 0.756 0.189v0.126l-0.136 0.012 -0.175 0.016c-0.058 0.005 -0.115 0.01 -0.175 0.015 -0.142 0.005 -0.142 0.005 -0.207 0.083q-0.125 0.034 -0.252 0.063v-0.189l0.126 -0.063c0.041 -0.128 0.041 -0.128 0.063 -0.252" fill="#20382C"/><path d="m16 8.945 0.063 0.126 0.189 0.063 -0.189 0.063 -0.126 -0.063 -0.031 0.193c-0.088 0.323 -0.342 0.493 -0.598 0.689l-0.126 -0.063z" fill="#388F45"/><path d="M11.528 17.197h0.252c0.114 0.174 0.127 0.245 0.102 0.457L11.843 17.827l-0.315 -0.063c-0.071 -0.425 -0.071 -0.425 0 -0.567" fill="#113A23"/><path d="m19.087 17.953 0.189 0.063 0.063 0.63 -0.441 -0.063c0.038 -0.224 0.099 -0.421 0.189 -0.63" fill="#033D1C"/><path d="M20.22 9.323h0.126c0.065 0.215 0.129 0.43 0.193 0.646l0.056 0.185 0.052 0.178 0.049 0.164c0.029 0.158 0.016 0.251 -0.035 0.402a21.732 21.732 0 0 1 -0.094 -0.236l-0.053 -0.133C20.472 10.394 20.472 10.394 20.472 10.142h-0.126z" fill="#2B9041"/><path d="M23.811 17.134c-0.098 0.241 -0.256 0.387 -0.441 0.567l-0.063 0.126 -0.315 -0.063 0.063 -0.126h0.126l0.063 -0.189c0.337 -0.315 0.337 -0.315 0.567 -0.315" fill="#12422C"/><path d="m13.102 21.291 0.063 0.126c-0.196 0.27 -0.389 0.524 -0.63 0.756l-0.126 0.189c0 -0.283 0.033 -0.325 0.205 -0.535l0.115 -0.144c0.119 -0.137 0.243 -0.265 0.373 -0.392" fill="#09391C"/><path d="M10.835 19.969v0.189c0.079 0.158 0.157 0.181 0.315 0.252l-0.063 0.189c-0.426 -0.217 -0.426 -0.217 -0.5 -0.394L10.583 20.094h-0.126v-0.126c0.236 -0.071 0.236 -0.071 0.378 0" fill="#143C28"/><path d="m14.299 14.551 0.126 0.189 0.189 0.063c0.053 0.213 0.07 0.357 0 0.567l-0.189 -0.063c-0.071 -0.209 -0.071 -0.209 -0.126 -0.441l-0.043 -0.15L14.236 14.614z" fill="#369C47"/><path d="M16.315 18.268c0.169 0.011 0.336 0.039 0.504 0.063l-0.189 0.252 -0.252 -0.063v0.189h-0.252c0.118 -0.37 0.118 -0.37 0.189 -0.441" fill="#2BAA35"/><path d="M16.882 13.606h0.126c-0.122 0.391 -0.268 0.763 -0.441 1.134h-0.063q0.013 -0.136 0.028 -0.272c0.005 -0.05 0.01 -0.101 0.015 -0.153 0.034 -0.244 0.103 -0.352 0.272 -0.52z" fill="#34984C"/><path d="m11.213 11.78 0.315 0.063 0.063 0.189 0.146 0.012c0.169 0.051 0.169 0.051 0.283 0.213L12.094 12.409l-0.189 0.063 -0.063 -0.252 -0.146 -0.02c-0.181 -0.046 -0.247 -0.086 -0.358 -0.232v-0.126z" fill="#173D2A"/><path d="M15.496 20.283h0.378v0.126l-0.209 0.059A10.709 10.709 0 0 0 15.244 20.598c-0.147 -0.018 -0.295 -0.038 -0.441 -0.063v-0.126h0.693z" fill="#244734"/><path d="m15.937 18.52 0.189 0.063v0.126l0.252 0.063c-0.417 0.189 -0.417 0.189 -0.63 0.189 0.047 -0.299 0.047 -0.299 0.189 -0.441" fill="#409150"/><path d="M11.906 20.346c0.126 0.126 0.126 0.126 0.134 0.323L12.031 20.85l-0.378 0.063v-0.126l-0.126 -0.063 0.063 -0.126 0.315 0.063z" fill="#17382A"/><path d="M14.803 16.441h0.063c0.014 0.14 0.027 0.281 0.039 0.421l0.022 0.237c0.001 0.222 -0.018 0.346 -0.125 0.539 -0.165 0.114 -0.165 0.114 -0.315 0.189l0.063 -0.315h0.189z" fill="#155B27"/><path d="M17.134 12.472h0.126c0.101 0.36 0.006 0.61 -0.126 0.945h-0.063c-0.012 -0.665 -0.012 -0.665 0.063 -0.945" fill="#37A34D"/><path d="m21.417 16.504 0.189 0.063 -0.126 0.315h-0.126l0.063 0.252c-0.189 -0.126 -0.189 -0.126 -0.315 -0.315z" fill="#113F26"/><path d="m16.315 20.346 0.063 0.189h-0.819c0.063 -0.126 0.063 -0.126 0.165 -0.165 0.198 -0.031 0.391 -0.027 0.591 -0.024" fill="#0D4929"/><path d="m21.417 19.213 0.189 0.063 -0.126 0.083 -0.126 0.106v0.189c-0.362 0.189 -0.362 0.189 -0.504 0.189v-0.189l0.142 -0.043c0.205 -0.098 0.295 -0.214 0.425 -0.398" fill="#1A412E"/><path d="m17.197 18.205 0.126 0.063q-0.147 0.093 -0.295 0.185l-0.166 0.104c-0.165 0.087 -0.3 0.126 -0.484 0.152v-0.189l0.504 -0.063v-0.126c0.15 -0.067 0.15 -0.067 0.315 -0.126" fill="#409A45"/><path d="m14.425 11.213 0.126 0.126c-0.048 0.103 -0.097 0.205 -0.146 0.307l-0.082 0.173C14.236 11.969 14.236 11.969 14.047 12.094c0.097 -0.316 0.191 -0.606 0.378 -0.882" fill="#388A3E"/><path d="m13.228 18.646 0.126 0.063 0.189 0.063 0.126 0.063 -0.315 0.315c-0.098 -0.075 -0.098 -0.075 -0.189 -0.189 0.02 -0.169 0.02 -0.169 0.063 -0.315" fill="#1C3629"/><path d="m14.425 17.827 0.063 0.189c-0.086 0.129 -0.086 0.129 -0.209 0.264l-0.121 0.137C14.047 18.52 14.047 18.52 13.921 18.52v-0.252h0.126v-0.126l0.118 -0.016c0.146 -0.035 0.146 -0.035 0.213 -0.177z" fill="#1B3627"/><path d="M11.402 15.874c0.163 0.163 0.165 0.278 0.189 0.504l-0.063 0.126h0.126l-0.063 0.189h-0.126v-0.126h-0.126z" fill="#1B3829"/><path d="M20.409 14.614h0.126c-0.182 0.604 -0.182 0.604 -0.378 0.819l-0.126 -0.063v-0.126h0.126l0.02 -0.102c0.055 -0.189 0.141 -0.354 0.232 -0.528" fill="#2C9746"/><path d="m19.969 9.008 0.063 0.126h0.126v0.126l0.126 0.063 -0.063 0.441c-0.076 -0.147 -0.136 -0.283 -0.189 -0.441l-0.126 0.063a6.299 6.299 0 0 1 0 -0.315z" fill="#22A93D"/><path d="M16.945 3.465h0.063l0.063 0.567h-0.378z" fill="#1B2821"/><path d="M9.323 18.772c0.185 0.047 0.185 0.047 0.378 0.126 0.055 0.134 0.055 0.134 0.063 0.252 -0.349 -0.039 -0.349 -0.039 -0.496 -0.161L9.197 18.898z" fill="#133C22"/><path d="m11.402 16.567 0.063 0.126h0.126l0.126 0.63 -0.063 -0.126h-0.126l-0.063 0.126z" fill="#043516"/><path d="M15.307 16.567h0.126c-0.086 0.187 -0.184 0.333 -0.319 0.488l-0.101 0.117L14.929 17.26h-0.063c-0.024 -0.142 -0.024 -0.142 0 -0.315 0.185 -0.138 0.185 -0.138 0.378 -0.252z" fill="#2E9D4D"/><path d="m24.378 16.315 0.126 0.063 -0.063 0.126 0.126 0.063c-0.08 0.044 -0.16 0.087 -0.24 0.13l-0.135 0.073C24.063 16.819 24.063 16.819 23.874 16.756l0.11 -0.079c0.143 -0.111 0.268 -0.232 0.394 -0.362" fill="#183929"/><path d="M11.654 15.37a6.614 6.614 0 0 1 0.315 0.252v0.126l0.252 0.126 -0.063 0.189c-0.216 -0.144 -0.348 -0.298 -0.504 -0.504z" fill="#1F3C2D"/><path d="M14.236 3.528c0.136 0.203 0.139 0.27 0.126 0.504h-0.315c0.034 -0.213 0.066 -0.32 0.189 -0.504" fill="#1B241F"/><path d="M13.858 13.102h0.063c0.008 0.468 0.008 0.468 -0.039 0.681 -0.043 0.156 -0.043 0.156 0.102 0.327l-0.252 -0.126v-0.504h0.126z" fill="#40A452"/><path d="M12.157 22.299h0.189c-0.033 0.174 -0.07 0.335 -0.126 0.504l-0.252 -0.063c0.036 -0.181 0.054 -0.243 0.189 -0.378z" fill="#113822"/><path d="M13.165 17.827h0.063v0.504h0.126v0.315h-0.126c-0.124 -0.3 -0.126 -0.502 -0.063 -0.819" fill="#0B3822"/><path d="m23.433 16.252 0.252 0.063 -0.567 0.504c0 -0.222 0.044 -0.28 0.189 -0.441h0.126z" fill="#203329"/><path d="M13.039 13.102c0.362 0.299 0.362 0.299 0.504 0.441v0.189l0.126 0.063c-0.146 -0.008 -0.146 -0.008 -0.315 -0.063 -0.106 -0.189 -0.106 -0.189 -0.189 -0.378l-0.126 -0.063z" fill="#1E3728"/><path d="m18.961 23.622 -0.063 0.126 0.126 0.063v0.126c-0.234 -0.032 -0.424 -0.07 -0.63 -0.189 0.212 -0.094 0.328 -0.126 0.567 -0.126" fill="#164629"/><path d="m21.606 22.362 0.189 0.189c-0.068 0.136 -0.138 0.215 -0.252 0.315h-0.126l0.063 -0.378h0.126z" fill="#19432F"/><path d="M20.472 17.197h0.189l0.063 0.189 0.126 0.063 -0.063 0.315 -0.126 -0.063v-0.063l-0.063 -0.126h-0.126z" fill="#0A311B"/><path d="m14.551 15.37 0.189 0.063 -0.063 0.315 0.126 0.063v0.504c-0.171 -0.171 -0.164 -0.305 -0.197 -0.543l-0.032 -0.227z" fill="#2B903C"/><path d="m22.425 22.047 -0.063 0.189 -0.189 0.063a5.669 5.669 0 0 0 -0.252 0.252c0 -0.252 0 -0.252 0.063 -0.378 0.165 -0.099 0.244 -0.126 0.441 -0.126" fill="#16402A"/><path d="m15.622 15.937 0.126 0.252 -0.252 0.252 -0.126 -0.189z" fill="#31A84F"/><path d="M18.583 6.866v0.126c-0.326 0.203 -0.326 0.203 -0.441 0.252l-0.189 -0.063c0.346 -0.315 0.346 -0.315 0.63 -0.315" fill="#399647"/><path d="m19.087 17.953 0.189 0.063c-0.016 0.15 -0.016 0.15 -0.063 0.315 -0.13 0.083 -0.13 0.083 -0.252 0.126 0 -0.202 0.047 -0.321 0.126 -0.504" fill="#1D3D2A"/><path d="M16.504 14.047h0.126l-0.126 0.756h-0.126q0.013 -0.171 0.028 -0.342c0.005 -0.064 0.01 -0.127 0.015 -0.193C16.441 14.11 16.441 14.11 16.504 14.047" fill="#34AF4F"/><path d="m12.724 12.913 0.315 0.315 -0.189 0.126 -0.063 -0.189h-0.126l-0.063 -0.189z" fill="#10432C"/><path d="M10.205 11.15c0.185 0.051 0.185 0.051 0.378 0.126l0.063 0.189 -0.315 0.063z" fill="#1B3728"/><path d="m22.677 16.882 0.252 0.126 -0.118 0.047c-0.156 0.092 -0.194 0.166 -0.26 0.331l-0.126 -0.189h0.126z" fill="#1E3C2D"/><path d="M23.181 15.685h0.315c0.09 0.148 0.131 0.219 0.102 0.394L23.559 16.189l-0.126 -0.063v-0.252l-0.252 -0.063z" fill="#203229"/><path d="m23.496 15.874 -0.063 0.252 -0.063 -0.126 -0.315 0.063v-0.189c0.168 -0.084 0.262 -0.042 0.441 0" fill="#0A2C19"/><path d="M20.598 13.795h0.063c0.009 0.54 0.009 0.54 -0.063 0.756l-0.189 -0.063 0.063 -0.138c0.064 -0.179 0.068 -0.305 0.063 -0.492z" fill="#29A04A"/><path d="M17.575 11.591c0.089 0.268 0.012 0.423 -0.063 0.693h-0.126v-0.378h0.126z" fill="#3E9749"/><path d="m9.071 10.835 0.693 0.063v0.126l-0.63 0.063z" fill="#0F3523"/><path d="m13.858 21.039 -0.126 0.063 0.063 0.126 -0.441 0.063 -0.063 -0.126c0.354 -0.197 0.354 -0.197 0.567 -0.126" fill="#06401B"/><path d="M21.921 18.898c0.043 0.114 0.043 0.114 0.063 0.252 -0.091 0.11 -0.091 0.11 -0.189 0.189l-0.189 -0.189z" fill="#104E28"/><path d="m20.661 18.583 0.189 0.126c-0.079 0.098 -0.079 0.098 -0.189 0.189 -0.138 -0.02 -0.138 -0.02 -0.252 -0.063v-0.126z" fill="#143D25"/><path d="m18.457 17.323 0.189 0.063 -0.567 0.378v-0.189c0.177 -0.142 0.177 -0.142 0.378 -0.252" fill="#37974E"/><path d="m20.409 19.906 0.252 0.063c-0.169 0.169 -0.339 0.193 -0.567 0.252l-0.063 -0.126 0.378 -0.063z" fill="#1E422F"/><path d="M9.764 19.465h0.126v0.126l0.378 0.063 0.063 0.189c-0.228 0 -0.32 -0.058 -0.504 -0.189z" fill="#0F3B28"/><path d="M19.465 19.15h0.441l0.063 0.126c-0.193 0.034 -0.371 0.063 -0.567 0.063z" fill="#1E3829"/><path d="m21.606 17.827 0.315 0.063 -0.315 0.315c-0.078 -0.157 -0.049 -0.215 0 -0.378" fill="#1D3626"/><path d="m20.661 17.512 0.126 0.063c-0.083 0.217 -0.083 0.217 -0.189 0.441l-0.189 0.063c0.033 -0.241 0.094 -0.382 0.252 -0.567" fill="#1F3D2C"/><path d="m22.236 17.449 0.189 0.063 -0.441 0.378 -0.063 -0.189 0.122 -0.02L22.173 17.638z" fill="#24382C"/><path d="m14.299 14.551 0.126 0.189 0.189 0.063v0.126l-0.252 0.063c-0.126 -0.189 -0.126 -0.189 -0.102 -0.327z" fill="#3DA353"/><path d="M14.11 12.031h0.063v0.378l-0.252 0.126c0.034 -0.213 0.066 -0.32 0.189 -0.504" fill="#3E9B49"/><path d="M10.709 11.402a15.748 15.748 0 0 1 0.378 0.252v0.063c-0.362 0.008 -0.362 0.008 -0.504 -0.063z" fill="#103B26"/><path d="M14.803 20.409h0.504v0.189l-0.504 -0.063z" fill="#193E2D"/><path d="m20.787 19.78 0.126 0.126h-0.126v0.126l-0.189 -0.063zm-0.252 0.252 0.126 0.063 -0.252 0.126v-0.126z" fill="#0C4E2C"/><path d="m22.803 17.89 0.126 0.126c-0.004 0.126 -0.004 0.126 -0.063 0.252 -0.161 0.079 -0.161 0.079 -0.315 0.126l0.126 -0.252h0.126z" fill="#114022"/><path d="m16.063 15.118 0.252 0.126a10.016 10.016 0 0 1 -0.189 0.315h-0.063z" fill="#39A147"/></svg>